<svg xmlns="http://www.w3.org/2000/svg" width="345" height="256" viewBox="0 0 345 256" version="1.1"><path d="M 168 167.500 C 170.257 169.902, 170.827 170, 182.567 170 C 192.506 170, 194.893 170.280, 195.362 171.500 C 195.829 172.718, 198.190 173, 207.910 173 C 214.812 173, 220.144 173.423, 220.500 174 C 220.856 174.576, 226.157 175, 233 175 C 239.535 175, 245.119 175.383, 245.408 175.851 C 245.697 176.319, 251.237 177.017, 257.717 177.402 C 264.198 177.787, 269.650 178.528, 269.833 179.051 C 270.017 179.575, 275.261 180, 281.534 180 C 290.390 180, 293.079 180.318, 293.707 181.441 C 294.291 182.485, 298.093 183.176, 307.507 183.951 C 334.700 186.188, 332.453 186.121, 324.500 184.452 C 314.433 182.339, 293.128 179.102, 281.500 177.918 C 276 177.358, 270.664 176.439, 269.643 175.875 C 268.622 175.311, 262.772 174.600, 256.643 174.294 C 250.011 173.964, 244.893 173.235, 244 172.494 C 243.097 171.744, 238.091 171.051, 231.424 170.753 C 225.333 170.480, 219.400 169.749, 218.240 169.128 C 217.022 168.477, 211.234 168, 204.534 168 C 195.148 168, 192.827 167.714, 192.362 166.500 C 191.891 165.273, 189.412 165, 178.719 165 L 165.651 165 168 167.500" stroke="none" fill="#0e4385" fill-rule="evenodd"/><path d="M 222.500 169.973 C 224.700 170.475, 230.157 170.911, 234.628 170.942 C 240.175 170.982, 243.111 171.429, 243.877 172.351 C 244.641 173.273, 248.617 173.881, 256.371 174.263 C 262.626 174.571, 268.589 175.290, 269.622 175.861 C 270.655 176.431, 276.262 177.356, 282.082 177.916 C 287.902 178.476, 293.527 179.229, 294.582 179.590 C 296.370 180.202, 296.364 180.143, 294.487 178.733 C 293.258 177.808, 288.979 176.947, 283.487 176.520 C 278.544 176.135, 272.025 175.223, 269 174.493 C 265.975 173.763, 259.225 172.854, 254 172.472 C 248.775 172.091, 244.011 171.385, 243.414 170.903 C 242.817 170.422, 236.967 169.810, 230.414 169.545 C 221.951 169.202, 219.659 169.326, 222.500 169.973 M 151.500 180.950 C 68.952 190.824, 10.308 212.109, 5.514 233.937 C 4.140 240.190, 8.782 249.729, 11.140 245.500 C 23.943 222.540, 103.054 195.708, 185 186.532 C 195.441 185.363, 198 184.820, 198 183.775 C 198 182.754, 184.900 183.299, 177.326 184.635 C 174.422 185.146, 174.124 184.952, 173.826 182.347 C 173.406 178.683, 171.471 178.562, 151.500 180.950" stroke="none" fill="#008148" fill-rule="evenodd"/><path d="M 216.769 167.222 C 217.658 168.292, 221.294 168.870, 230.142 169.345 C 236.825 169.705, 242.790 170.399, 243.397 170.889 C 244.004 171.378, 248.775 172.091, 254 172.472 C 259.225 172.854, 265.975 173.763, 269 174.493 C 272.025 175.223, 278.526 176.134, 283.447 176.516 C 288.368 176.899, 293.318 177.793, 294.447 178.502 C 295.576 179.211, 299.650 180.101, 303.500 180.478 C 307.350 180.856, 315.162 182.054, 320.859 183.140 C 326.557 184.226, 331.400 184.933, 331.621 184.712 C 332.256 184.078, 296.892 176.643, 280.500 173.964 C 274.450 172.975, 267.925 171.709, 266 171.149 C 262.666 170.181, 242.246 167.884, 224.025 166.429 C 216.633 165.839, 215.705 165.940, 216.769 167.222 M 150 173.124 C 59.155 179.204, -2.828 202.309, 4.128 227.500 C 5.363 231.973, 5.055 232.081, 11.927 224.750 C 31.153 204.238, 82.805 188.403, 156.360 180.472 C 172.917 178.687, 174 178.816, 174 182.580 C 174 185.011, 174.261 185.177, 177.250 184.658 C 185.668 183.195, 197.233 182.759, 197.925 183.878 C 198.454 184.734, 201.724 184.785, 210.569 184.075 C 217.131 183.548, 227.787 182.821, 234.250 182.460 C 241.410 182.059, 246 181.391, 246 180.748 C 246 180.030, 242.158 179.899, 234 180.338 C 223.286 180.914, 222 180.807, 222 179.344 C 222 177.887, 220.680 177.767, 210.070 178.255 C 199.883 178.725, 198.052 178.579, 197.545 177.257 C 197.038 175.935, 195.212 175.788, 185.091 176.254 C 173.305 176.797, 173.223 176.786, 172.137 174.400 C 170.898 171.683, 171.237 171.702, 150 173.124" stroke="none" fill="#feca06" fill-rule="evenodd"/><path d="M 234.685 107.017 C 223.752 110.299, 217.711 124.633, 222.941 134.885 C 232.814 154.238, 261.019 148.126, 261.213 126.591 C 261.339 112.568, 248.284 102.935, 234.685 107.017 M 148.438 166.120 C 53.671 169.880, -5.652 189.751, 3.083 214.809 L 4.114 217.765 11.807 210.085 C 32.238 189.690, 105.603 172, 169.754 172 C 170.463 172, 171.535 173.080, 172.137 174.400 C 173.223 176.786, 173.305 176.797, 185.091 176.254 C 195.212 175.788, 197.038 175.935, 197.545 177.257 C 198.052 178.579, 199.883 178.725, 210.070 178.255 C 220.716 177.765, 222 177.883, 222 179.357 C 222 180.836, 223.215 180.939, 233.593 180.347 C 241.204 179.912, 245.413 180.040, 245.843 180.719 C 246.761 182.166, 294.164 182.993, 293.687 181.554 C 293.477 180.921, 288.796 180.386, 281.956 180.215 C 275.697 180.059, 270.322 179.521, 270.012 179.019 C 269.702 178.518, 264.158 177.792, 257.692 177.405 C 251.225 177.019, 245.697 176.319, 245.408 175.851 C 245.119 175.383, 239.535 175, 233 175 C 226.157 175, 220.856 174.576, 220.500 174 C 220.144 173.423, 214.812 173, 207.910 173 C 198.190 173, 195.829 172.718, 195.362 171.500 C 194.894 170.281, 192.520 170, 182.698 170 C 171.531 170, 170.415 169.826, 168.055 167.722 C 165.538 165.478, 165.243 165.454, 148.438 166.120" stroke="none" fill="#d61126" fill-rule="evenodd"/><path d="M 163.746 14.086 C 141.175 19.405, 119.768 50.223, 108 94.338 C 104.488 107.502, 104.473 107.255, 108.756 106.399 C 111.646 105.821, 112.053 105.141, 115.497 95.142 C 143.762 13.074, 200.419 13.041, 227.946 95.077 L 230.153 101.654 233.537 100.594 C 237.539 99.342, 237.643 100.314, 231.495 81.500 C 215.814 33.516, 190.056 7.885, 163.746 14.086 M 69.746 53.030 C 36.655 61.317, 32.144 103.118, 58.795 154.500 C 63.557 163.681, 64.913 165.543, 67 165.759 C 72.178 166.296, 72.179 165.028, 67.010 152.965 C 43.832 98.870, 58.067 63.441, 101.839 66.277 L 110.542 66.840 112.271 62.660 C 113.222 60.360, 114 58.008, 114 57.433 C 114 54.046, 79.426 50.606, 69.746 53.030 M 239.062 54.072 C 228.700 56.409, 228.481 56.622, 230.880 61.981 L 232.816 66.305 245.658 66.445 C 274.995 66.766, 290.075 83.569, 287.605 113.184 L 286.949 121.049 291.639 123.060 C 297.504 125.574, 297.432 125.661, 300.023 113 C 309.398 67.203, 285.076 43.692, 239.062 54.072 M 134.031 68.449 C 131.864 71.955, 131.992 74, 134.378 74 C 143.086 74, 185.637 101.259, 209.139 121.893 L 213.778 125.966 214.211 123.016 C 214.568 120.585, 213.928 119.389, 210.572 116.211 C 193.356 99.908, 168 81.744, 146.852 70.564 L 136.204 64.935 134.031 68.449 M 199.385 69.059 C 178.526 80.041, 176.505 81.686, 180.772 84.207 C 183.478 85.804, 183.775 85.730, 193.022 81.152 C 198.235 78.571, 204.623 75.569, 207.217 74.480 L 211.933 72.500 209.602 68.704 L 207.270 64.908 199.385 69.059 M 148.445 102.750 C 129.196 118.168, 112.121 135.691, 111.364 140.805 L 110.727 145.110 122.613 133.274 C 133.910 122.026, 149.142 108.987, 160.852 100.540 C 166.175 96.701, 166.191 96.672, 163.852 95.375 C 160.227 93.365, 160.065 93.442, 148.445 102.750 M 157.500 110.531 L 154.500 112.990 171.500 112.959 L 188.500 112.928 185.500 110.469 C 180.963 106.750, 162.061 106.792, 157.500 110.531 M 111.500 112.453 C 88.759 116.474, 64 123.280, 64 125.509 C 64 128.956, 66.308 133.094, 67.869 132.448 C 84.451 125.590, 106.752 118.905, 118.078 117.397 C 121.251 116.975, 123.861 115.757, 126.578 113.431 L 130.500 110.075 127.500 110.115 C 125.850 110.137, 118.650 111.189, 111.500 112.453 M 268.231 125.313 C 268.418 129.618, 268.430 129.630, 274.749 132.268 C 295.365 140.876, 310.764 154.398, 318.654 170.821 C 318.972 171.482, 339.283 177.051, 339.733 176.600 C 343.996 172.337, 327.438 151.076, 311.700 140.604 C 301.238 133.643, 273.340 121, 268.442 121 C 268.223 121, 268.128 122.941, 268.231 125.313 M 103.328 126.696 C 100.932 127.162, 100.702 128.058, 99.005 143.500 C 97.363 158.450, 97.566 161, 100.399 161 C 102.648 161, 102.839 160.548, 103.469 153.750 C 103.838 149.762, 104.784 142.342, 105.570 137.261 C 107.221 126.595, 107.260 125.953, 106.250 126.136 C 105.838 126.211, 104.523 126.463, 103.328 126.696 M 36.657 137.438 C 14.995 150.518, 4.153 164.650, 3.204 181.040 C 2.655 190.521, 3.446 191.173, 9.702 186.396 C 12.341 184.381, 16.395 181.812, 18.710 180.687 C 21.915 179.129, 23.073 177.907, 23.561 175.570 C 25.416 166.677, 34.395 153.941, 43.809 146.850 L 47.118 144.357 44.809 139.133 L 42.500 133.910 36.657 137.438 M 280.347 143.707 C 280.004 144.693, 278.194 149.046, 276.326 153.381 C 272.524 162.197, 272.497 161.882, 277.131 162.634 C 281.806 163.392, 290.114 148.044, 286.492 145.340 C 282.198 142.135, 281.004 141.818, 280.347 143.707" stroke="none" fill="#0667ad" fill-rule="evenodd"/></svg>